<mxfile host="MbS">
  <diagram id="ohF" name="Grid-Right">
    <mxGraphModel dx="0" dy="0" background="#FFFACD" grid="0" gridSize="10" guides="1" tooltips="1" connect="1" arrows="1" fold="1" page="1" pageScale="1" pageWidth="1169" pageHeight="827" math="0" shadow="1">
      <root>
        <mxCell id="ohF-A"/>
        <mxCell id="ohF-B" parent="ohF-A"/>
        <mxCell id="ohF-1" value="Square" style="whiteSpace=wrap;html=1;fillColor=#f5f5f5;strokeColor=#666666;fontColor=#333333" vertex="1" parent="ohF-B">
          <mxGeometry x="20" y="20" width="160" height="160" as="geometry"/>
        </mxCell>
        <mxCell id="ohF-2" value="Rectangle" style="whiteSpace=wrap;html=1;fillColor=#f5f5f5;strokeColor=#666666;fontColor=#333333" vertex="1" parent="ohF-B">
          <mxGeometry x="20" y="200" width="240" height="120" as="geometry"/>
        </mxCell>
        <mxCell id="ohF-3" value="Rectangle (Rounded)" style="whiteSpace=wrap;html=1;rounded=1;fillColor=#f5f5f5;strokeColor=#666666;fontColor=#333333" vertex="1" parent="ohF-B">
          <mxGeometry x="20" y="340" width="240" height="120" as="geometry"/>
        </mxCell>
        <mxCell id="ohF-4" value="Circle" style="ellipse;whiteSpace=wrap;html=1;fillColor=#f5f5f5;strokeColor=#666666;fontColor=#333333" vertex="1" parent="ohF-B">
          <mxGeometry x="20" y="480" width="160" height="160" as="geometry"/>
        </mxCell>
        <mxCell id="ohF-5" value="Process" style="shape=process;whiteSpace=wrap;html=1;fillColor=#f5f5f5;strokeColor=#666666;fontColor=#333333" vertex="1" parent="ohF-B">
          <mxGeometry x="20" y="660" width="240" height="120" as="geometry"/>
        </mxCell>
        <mxCell id="ohF-6" value="Ellipse" style="ellipse;whiteSpace=wrap;html=1;fillColor=#f5f5f5;strokeColor=#666666;fontColor=#333333" vertex="1" parent="ohF-B">
          <mxGeometry x="20" y="800" width="240" height="120" as="geometry"/>
        </mxCell>
      </root>
    </mxGraphModel>
  </diagram>
</mxfile>